<svg viewBox="0 0 512 512" xmlns="http://www.w3.org/2000/svg">
 <path d="m256 5.6149e-7c-85.333 42.666-170.67 85.333-256 128 85.333 42.667 170.67 85.334 256 128 85.334-42.667 170.67-85.334 256-128-85.334-42.666-170.67-85.333-256-128z" fill="#b3b3b3"/>
 <path d="m512 128c-85.334 42.667-170.67 85.334-256 128v256c85.334-42.667 170.67-85.334 256-128v-256z" fill="#4d4d4d" />
 <path d="m1.123e-6 128c85.334 42.667 170.67 85.334 256 128v256c-85.334-42.667-170.67-85.334-256-128v-256z" fill="#1a1a1a" />
 <path d="m256 447.67c63.891-31.946 127.78-63.891 191.67-95.837-63.891-31.946-127.78-63.892-191.67-95.838-63.892 31.946-127.78 63.892-191.68 95.838 63.892 31.946 127.78 63.891 191.68 95.837z" fill="#b3b3b3" />
 <path d="m64.325 351.84c63.892-31.946 127.78-63.892 191.68-95.838v-191.67c-63.892 31.946-127.78 63.892-191.68 95.838v191.67z" fill="#4d4d4d" />
 <path d="m447.67 351.84c-63.892-31.946-127.78-63.892-191.68-95.838v-191.67c63.892 31.946 127.78 63.892 191.68 95.838v191.67z" fill="#1a1a1a" />
 <path d="m256 128.65c-42.45 21.225-84.899 42.449-127.35 63.674 42.45 21.225 84.899 42.45 127.35 63.675 42.45-21.225 84.9-42.45 127.35-63.675-42.45-21.225-84.9-42.449-127.35-63.674z" fill="#ff8807" />
 <path d="m383.35 192.33c-42.45 21.225-84.9 42.45-127.35 63.675v127.35c42.45-21.225 84.9-42.45 127.35-63.675v-127.35z" fill="#d45100" />
 <path d="m128.65 192.33c42.45 21.225 84.9 42.45 127.35 63.675v127.35c-42.45-21.225-84.9-42.45-127.35-63.675v-127.35z" fill="#aa4100" />
</svg>
